<?xml version="1.0" standalone="no"?>
<!DOCTYPE svg PUBLIC "-//W3C//DTD SVG 20010904//EN"
 "http://www.w3.org/TR/2001/REC-SVG-20010904/DTD/svg10.dtd">
<svg version="1.0" xmlns="http://www.w3.org/2000/svg"
 width="890.000000pt" height="980.000000pt" viewBox="0 0 890.000000 980.000000"
 preserveAspectRatio="xMidYMid meet">

<g transform="translate(0.000000,980.000000) scale(0.100000,-0.100000)"
fill="#000000" stroke="none">
<path d="M4458 9722 c-35 -32 -88 -76 -118 -99 -63 -48 -120 -119 -150 -186
-22 -49 -26 -52 -48 -38 -11 7 -10 16 7 47 12 22 28 49 37 62 9 12 15 22 12
22 -3 0 -56 -68 -85 -109 -6 -8 -83 32 -83 43 0 6 19 36 41 66 l41 55 -40 -38
c-38 -37 -39 -38 -35 -13 9 46 -31 31 -104 -38 -38 -35 -93 -76 -123 -91 -241
-120 -511 -334 -680 -540 -160 -196 -262 -412 -290 -622 -28 -201 -1 -643 58
-971 l19 -103 -38 6 c-52 9 -84 -23 -95 -91 -9 -63 8 -217 42 -364 36 -156 58
-211 108 -267 36 -40 44 -57 50 -103 31 -247 175 -606 342 -856 328 -491 766
-777 1149 -750 288 20 557 154 819 406 240 230 427 509 550 821 45 112 98 298
111 389 5 32 17 55 40 80 49 50 80 126 115 280 32 136 50 339 36 394 -9 37
-41 66 -72 66 -21 0 -25 3 -19 18 21 52 77 300 95 419 24 169 27 425 5 558
-19 118 -57 250 -99 340 -136 295 -434 540 -821 675 -49 17 -97 38 -106 46
-18 17 -33 19 -23 3 4 -7 -1 -9 -15 -5 -11 3 -31 9 -43 12 -13 3 -41 23 -62
43 -34 31 -36 32 -18 7 12 -16 20 -31 18 -33 -9 -10 -43 17 -75 61 -35 47 -52
55 -31 16 22 -41 3 -30 -79 46 -103 96 -159 178 -186 270 l-21 72 -51 -35
c-28 -19 -70 -54 -92 -78 -23 -25 -41 -43 -41 -41 0 17 43 99 72 136 68 89 63
92 -24 12z m-112 -149 c-13 -27 -29 -67 -36 -90 -13 -42 -23 -52 -35 -33 -9
14 74 170 91 170 2 0 -6 -21 -20 -47z"/>
<path d="M5520 4952 c-133 -257 -320 -528 -483 -699 -337 -352 -684 -419
-1020 -196 -219 145 -440 428 -620 795 -51 103 -95 187 -98 187 -4 1 -12 -12
-19 -28 -6 -16 -40 -56 -74 -89 -175 -169 -589 -367 -1181 -567 -110 -37 -240
-88 -290 -112 -182 -91 -350 -222 -424 -332 -235 -345 -426 -982 -540 -1791
-83 -595 -106 -1014 -63 -1172 43 -159 90 -217 222 -273 710 -306 1753 -529
3045 -652 227 -22 837 -24 1135 -4 571 38 1140 119 1665 237 470 105 1076 290
1211 369 61 36 151 121 180 170 36 62 47 175 47 505 0 442 -49 826 -169 1328
-114 478 -322 1081 -420 1219 -159 222 -663 504 -1283 718 -141 48 -312 115
-375 147 -174 87 -327 211 -368 298 l-23 48 -55 -106z"/>
</g>
</svg>
